<svg width="3878" height="4200" fill="none" xmlns="http://www.w3.org/2000/svg"><g clip-path="url(#a)"><path d="M1939 0 0 697.2l295.744 2585.1L1939 4200l1643.26-917.7L3878 697.2 1939 0z" fill="url(#b)"/><path d="M1939 100 77 764l284 2462 1578 874 1578-874 284-2462-1862-664z" fill="url(#c)"/><path d="M1939 541.992 775 3151.99h434l234-584h988l234 584h434L1939 541.992zm340 1665.998h-680l340-818 340 818z" fill="#fff"/></g><defs><linearGradient id="b" x1="1939" y1="0" x2="1939" y2="4200" gradientUnits="userSpaceOnUse"><stop stop-color="#fff" stop-opacity=".16"/><stop offset=".333" stop-color="#D9D9D9" stop-opacity=".06"/><stop offset=".656" stop-color="#D9D9D9" stop-opacity="0"/><stop offset="1" stop-color="#D9D9D9" stop-opacity="0"/></linearGradient><linearGradient id="c" x1="77" y1="1946.15" x2="3801.61" y2="1962.62" gradientUnits="userSpaceOnUse"><stop stop-color="#F926E1"/><stop offset="1" stop-color="#2AB5FB"/></linearGradient><clipPath id="a"><path fill="#fff" d="M0 0h3878v4200H0z"/></clipPath></defs></svg>